<svg xmlns="http://www.w3.org/2000/svg" xmlns:xlink="http://www.w3.org/1999/xlink" width="316.735229" height="103.473709" viewBox="0 0 316.735 103.474"><path d="M16.5356 73.5492Q11.1919 73.5492 8.32715 71.4266Q5.47722 69.2891 4.43818 65.4299Q3.39914 61.5706 3.39914 56.4051L3.39914 23.7496L9.97477 23.7496L9.97477 56.7019Q9.97477 59.8636 10.3904 62.4909Q10.8208 65.1033 12.2458 66.6173Q13.6856 68.1314 16.5356 68.1314Q19.4597 68.1314 20.855 66.6173Q22.2503 65.1033 22.6659 62.4909Q23.0963 59.8636 23.0963 56.7019L23.0963 23.7496L29.6126 23.7496L29.6126 56.4051Q29.6126 61.5706 28.5735 65.4299Q27.5345 69.2891 24.7143 71.4266Q21.894 73.5492 16.5356 73.5492ZM36.2931 73L36.2931 37.8657L42.7946 37.8657L42.7946 41.3242Q44.5609 39.6766 46.6835 38.5336Q48.821 37.3758 51.374 37.3758Q53.4967 37.3758 54.6247 38.4742Q55.7528 39.5578 56.1982 41.2054Q56.6583 42.8382 56.6583 44.5452L56.6583 73L50.1569 73L50.1569 46.4303Q50.1569 44.5452 49.6077 43.521Q49.0585 42.482 47.3663 42.482Q46.2679 42.482 45.0804 43.1202Q43.893 43.7585 42.7946 44.6639L42.7946 73L36.2931 73ZM63.4135 73L63.4135 37.8657L69.9149 37.8657L69.9149 73L63.4135 73ZM63.4135 32.6259L63.4135 25.8277L69.9149 25.8277L69.9149 32.6259L63.4135 32.6259ZM76.9055 84.5482L76.9055 37.8657L83.4069 37.8657L83.4069 40.6562Q84.5647 39.3203 86.1975 38.3555Q87.8451 37.3758 90.1013 37.3758Q92.8325 37.3758 94.4356 38.8008Q96.0535 40.2258 96.8402 42.3929Q97.6417 44.5452 97.8792 46.7717Q98.1316 48.9834 98.1316 50.5716L98.1316 59.0769Q98.1316 62.7877 97.3894 66.0978Q96.6621 69.4079 94.7473 71.4563Q92.8325 73.4898 89.374 73.4898Q87.4889 73.4898 86.0194 72.5547Q84.5647 71.6047 83.4069 70.3876L83.4069 84.5482L76.9055 84.5482ZM88.0974 68.3837Q89.8044 68.3837 90.5318 67.1369Q91.2591 65.89 91.4372 63.7674Q91.6153 61.63 91.6153 59.0769L91.6153 50.5716Q91.6153 48.3748 91.3778 46.5194Q91.1403 44.6639 90.3388 43.5804Q89.5521 42.482 87.8451 42.482Q86.5686 42.482 85.4108 43.0312Q84.2678 43.5804 83.4069 44.3077L83.4069 66.7955Q84.3272 67.4634 85.485 67.9236Q86.6428 68.3837 88.0974 68.3837ZM104.63 73L104.63 23.7496L111.131 23.7496L111.131 73L104.63 73ZM127.607 73.4898Q123.718 73.4898 121.461 71.9164Q119.22 70.3282 118.27 67.4189Q117.335 64.4947 117.335 60.5315L117.335 50.3193Q117.335 46.3709 118.27 43.4616Q119.22 40.5375 121.461 38.9641Q123.718 37.3758 127.607 37.3758Q131.51 37.3758 133.722 38.9641Q135.949 40.5375 136.884 43.4616Q137.834 46.3709 137.834 50.3193L137.834 60.5315Q137.834 64.4947 136.884 67.4189Q135.949 70.3282 133.722 71.9164Q131.51 73.4898 127.607 73.4898ZM127.607 68.6806Q129.492 68.6806 130.249 67.597Q131.021 66.4986 131.169 64.7025Q131.317 62.9065 131.317 60.962L131.317 49.963Q131.317 47.9443 131.169 46.1928Q131.021 44.4265 130.249 43.2984Q129.492 42.1703 127.607 42.1703Q125.721 42.1703 124.935 43.2984Q124.148 44.4265 124 46.1928Q123.851 47.9443 123.851 49.963L123.851 60.962Q123.851 62.9065 124 64.7025Q124.148 66.4986 124.935 67.597Q125.721 68.6806 127.607 68.6806ZM143.96 73L143.96 37.8657L150.477 37.8657L150.477 42.8382Q152.421 39.6172 154.366 38.5336Q156.31 37.4352 158.254 37.4352Q158.492 37.4352 158.7 37.4352Q158.922 37.4352 159.294 37.4946L159.294 44.6639Q158.566 44.3671 157.616 44.1593Q156.681 43.9366 155.701 43.9366Q154.187 43.9366 152.941 44.6343Q151.694 45.3319 150.477 47.3358L150.477 73L143.96 73ZM173.035 73.4898Q168.894 73.4898 166.638 71.8867Q164.396 70.2688 163.506 67.1369Q162.63 64.0049 162.63 59.448L162.63 51.4177Q162.63 46.742 163.535 43.6397Q164.456 40.5375 166.727 38.9641Q169.013 37.3758 173.035 37.3758Q177.473 37.3758 179.566 39.2016Q181.659 41.0125 182.327 44.4561Q182.995 47.885 182.995 52.6942L182.995 55.5442L169.131 55.5442L169.131 62.6096Q169.131 64.7322 169.532 66.0681Q169.933 67.404 170.809 68.0423Q171.685 68.6806 173.095 68.6806Q174.549 68.6806 175.306 67.9829Q176.063 67.2853 176.331 65.9791Q176.613 64.6729 176.613 62.9065L176.613 60.7839L182.936 60.7839L182.936 62.1198Q182.936 67.404 180.68 70.4469Q178.438 73.4898 173.035 73.4898ZM169.131 52.0263L176.613 52.0263L176.613 48.8646Q176.613 46.6678 176.36 45.1835Q176.123 43.6991 175.366 42.9421Q174.609 42.1703 172.961 42.1703Q171.388 42.1703 170.556 42.9124Q169.74 43.6397 169.428 45.3764Q169.131 47.0983 169.131 50.1412L169.131 52.0263ZM200.693 73L211.143 23.7496L217.778 23.7496L228.287 73L221.786 73L219.545 60.5909L209.51 60.5909L207.135 73L200.693 73ZM210.416 55.6777L218.624 55.6777L214.498 33.4869L210.416 55.6777ZM233.277 73L233.277 23.7496L245.493 23.7496Q249.932 23.7496 252.574 25.3675Q255.231 26.9706 256.448 30.0135Q257.665 33.0564 257.665 37.3758Q257.665 41.2648 256.285 44.1296Q254.919 46.9795 252.247 48.5381Q249.575 50.0818 245.553 50.0818L240.15 50.0818L240.15 73L233.277 73ZM240.15 45.1538L243.311 45.1538Q246.295 45.1538 247.987 44.4858Q249.694 43.8179 250.421 42.1554Q251.149 40.4781 251.149 37.4352Q251.149 33.9025 250.629 32.0174Q250.125 30.1323 248.477 29.4049Q246.829 28.6776 243.371 28.6776L240.15 28.6776L240.15 45.1538ZM262.341 73L263.247 23.7496L270 23.7496L278.699 63.6932L287.456 23.7496L294.136 23.7496L295.056 73L289.519 73L288.97 37.2571L280.643 73L276.754 73L268.486 37.2571L267.937 73L262.341 73Z" fill="#FFFFFF" fill-opacity="1.000000" transform="matrix(1 0 0 1 6.73686 6.73685)"/></svg>